<svg viewBox="0 0 105 148" xmlns="http://www.w3.org/2000/svg">
    <path d="M67.6008 98.8256l-5.6459 0c0,-9.5247 -7.989,-17.2709 -17.8157,-17.2709 -9.8267,0 -17.8129,7.7491 -17.8129,17.2709l-5.6459 0c0,-12.6412 10.5268,-22.9168 23.4616,-22.9168 12.932,0 23.4588,10.2756 23.4588,22.9168z" fill="#fff" />
    <path d="M44.142 74.0739c-8.5338,0 -15.4811,-6.9502 -15.4811,-15.484 -0.0028,-8.5366 6.9445,-15.4839 15.4811,-15.4839 8.5395,0 15.4868,6.9445 15.4868,15.4839 0,8.5395 -6.9473,15.484 -15.4868,15.484zm0 -25.322c-5.4257,0 -9.838,4.4123 -9.838,9.838 0,5.4258 4.4123,9.8381 9.838,9.8381 5.4286,0 9.8409,-4.4123 9.8409,-9.8381 0,-5.4257 -4.418,-9.838 -9.8409,-9.838z" fill="#fff" />
</svg>
