<svg viewBox="0 0 105 148" xmlns="http://www.w3.org/2000/svg">
      <path d="M77.9622 48.2494c-0.1104,-1.2131 -1.1232,-2.1431 -2.3453,-2.1431l-11.7741 0 0 -4.7092c0,-7.7922 -6.3344,-14.1292 -14.1293,-14.1292 -7.7922,0 -14.1292,6.337 -14.1292,14.1292l0 4.71 -11.7741 -0.0008c-1.2203,0 -2.2349,0.93 -2.3453,2.1431l-4.71 51.8068c-0.0587,0.6569 0.1602,1.3119 0.6079,1.7988 0.445,0.4904 1.076,0.7681 1.7373,0.7681l61.2269 0c0.6613,0 1.2932,-0.2777 1.7382,-0.7681 0.4424,-0.4878 0.6666,-1.1401 0.6079,-1.7988l-4.7109 -51.8068zm-37.6678 -6.8523c0,-5.1951 4.2267,-9.4192 9.4191,-9.4192 5.1925,0 9.4192,4.225 9.4192,9.4192l0 4.71 -18.8383 -0.0008 0 -4.7092zm-18.6132 56.5168l4.2784 -47.0976 9.6247 0 0 5.3624c-1.4035,0.8171 -2.355,2.3194 -2.355,4.0568 0,2.5997 2.1103,4.71 4.7101,4.71 2.5997,0 4.71,-2.1103 4.71,-4.71 0,-1.7383 -0.9514,-3.2406 -2.355,-4.0577l0 -5.3615 18.8383 0 0 5.3624c-1.4036,0.8171 -2.355,2.3176 -2.355,4.0576 0,2.5998 2.1103,4.7101 4.71,4.7101 2.5998,0 4.7101,-2.1103 4.7101,-4.7101 0,-1.7382 -0.9488,-3.2405 -2.355,-4.0576l0 -5.3624 9.6247 0 4.2784 47.0976 -56.0647 0z" fill="#fff"/>
</svg>
