<svg viewBox="0 0 800 800" preserveAspectRatio="xMidYMax meet" xmlns="http://www.w3.org/2000/svg" version="1.1">
<g fill="#fff">
<path d="M517 238A600 600 0 0 0 400 100A600 600 0 0 0 282 238 L 294 254A600 600 0 0 1 400 140A600 600 0 0 1 505 254z" />
<path d="M400 400 L 429 359A100 100 0 0 1 412 300A50 50 0 1 0 387 300A100 100 0 0 1 370 359z" />
<path d="M282 238A600 600 0 0 0 114 307A600 600 0 0 0 209 461 L 228 455A600 600 0 0 1 152 319A600 600 0 0 1 294 254z" />
<path d="M400 400 L 370 359A100 100 0 0 1 309 357A50 50 0 1 0 301 381A100 100 0 0 1 352 415z" />
<path d="M209 461A600 600 0 0 0 223 642A600 600 0 0 0 399 600 L 399 580A600 600 0 0 1 247 610A600 600 0 0 1 228 455z" />
<path d="M400 400 L 352 415A100 100 0 0 1 331 472A50 50 0 1 0 351 487A100 100 0 0 1 400 450z" />
<path d="M399 600A600 600 0 0 0 576 642A600 600 0 0 0 590 461 L 571 455A600 600 0 0 1 552 610A600 600 0 0 1 399 580z" />
<path d="M400 400 L 400 450A100 100 0 0 1 448 487A50 50 0 1 0 468 472A100 100 0 0 1 447 415z" />
<path d="M590 461A600 600 0 0 0 685 307A600 600 0 0 0 517 238 L 505 254A600 600 0 0 1 647 319A600 600 0 0 1 571 455z" />
<path d="M400 400 L 447 415A100 100 0 0 1 498 381A50 50 0 1 0 490 357A100 100 0 0 1 429 359z" />
</g>
</svg>